<svg width="1231px" height="597px" viewBox="0 0 1231 597" version="1.1" xmlns="http://www.w3.org/2000/svg" xmlns:xlink="http://www.w3.org/1999/xlink">

    <g stroke="none" stroke-width="1" fill="none" fill-rule="evenodd">
        <g transform="translate(-776.000000, -105.000000)" fill-rule="nonzero">
            <g transform="translate(776.000000, 105.000000)">
                <path d="M200.438806,297.12 L8.2,297.12 L8.2,0.12 L204.2,0.12 L204.2,54.3475281 L64.2,54.3475281 L64.2,98.1466854 L186.229851,98.1466854 L186.229851,153.625618 L64.2,153.625618 L64.2,242.058202 L200.438806,242.058202 L200.438806,297.12 Z M458.2,297.12 L250.2,297.12 L250.2,0.12 L306.280483,0.12 L306.280483,242.475337 L458.2,242.475337 L458.2,297.12 Z M768.2,297.12 L712.661538,297.12 L712.661538,98.5638202 L634.991209,204.516067 L557.738462,98.5638202 L557.738462,297.12 L502.2,297.12 L502.2,0.12 L554.397802,0.12 L634.991209,110.66073 L715.584615,0.12 L768.2,0.12 L768.2,297.12 Z" fill="#001D3E"></path>
                <path d="M104.547826,594.12 C96.5478261,594.12 88.2,593.078678 79.5043478,591.34314 C53.7652174,586.136529 28.7217391,573.640661 6.80869565,554.549752 L0.2,548.648926 L30.8086957,513.938182 L37.4173913,519.839008 C53.4173913,533.723306 71.1565217,543.095207 88.5478261,546.566281 L88.8956522,546.566281 C94.1130435,547.607603 99.3304348,548.301818 104.547826,548.301818 C113.243478,548.301818 121.243478,546.566281 127.852174,543.442314 C136.2,539.97124 145.93913,532.334876 145.93913,518.103471 C145.93913,510.467107 142.113043,504.566281 134.113043,499.706777 C124.373913,493.80595 111.156522,490.681983 101.765217,488.946446 C97.5913043,488.252231 62.1130435,480.962975 45.7652174,471.938182 C34.9826087,465.34314 26.6347826,457.012562 20.7217391,447.293554 C14.8086957,437.227438 12.026087,426.12 12.026087,413.97124 C12.026087,400.781157 16.2,387.591074 24.2,375.442314 C31.8521739,365.376198 42.2869565,357.04562 54.8086957,351.144793 C67.3304348,345.243967 81.2434783,342.12 96.2,342.12 C102.113043,342.12 108.373913,342.814215 114.634783,343.50843 C137.591304,347.673719 160.2,358.086942 180.026087,374.748099 L186.634783,380.301818 L157.069565,416.053884 L150.46087,410.500165 C127.852174,392.103471 108.373913,387.938182 95.8521739,387.938182 C87.8521739,387.938182 80.5478261,389.673719 74.2869565,392.450579 C64.5478261,396.962975 58.2869565,405.293554 58.2869565,413.624132 C58.2869565,421.260496 61.0695652,426.12 67.6782609,430.632397 C74.2869565,435.144793 84.373913,438.615868 100.373913,442.086942 C102.46087,442.43405 105.243478,443.128264 108.026087,443.822479 C122.634783,446.599339 142.113043,450.764628 155.678261,458.748099 C167.504348,464.996033 176.547826,473.673719 182.808696,483.739835 C189.069565,493.80595 192.2,505.607603 192.2,518.103471 C192.2,533.723306 188.026087,547.607603 179.678261,559.409256 C172.373913,569.475372 161.591304,578.153058 147.330435,585.095207 C135.156522,591.34314 121.591304,594.12 104.547826,594.12 Z M273.553075,592.12 L227.2,592.12 L227.2,344.12 L316.072437,344.12 C333.149886,344.12 349.181777,350.737978 361.379954,362.928989 C373.229613,375.12 380.2,390.794157 380.2,407.861573 C380.2,443.041348 351.272893,471.254831 316.072437,471.254831 L273.553075,471.254831 L273.553075,592.12 Z M274.2,426.12 L316.75814,426.12 C326.525581,426.12 334.2,418.081165 334.2,408.294757 C334.2,398.50835 326.176744,390.12 316.75814,390.12 L274.2,390.12 L274.2,426.12 Z M617.2,592.12 L562.243478,592.12 L474.243478,470.906517 L454.417391,470.906517 L454.417391,592.12 L409.2,592.12 L409.2,344.12 L497.895652,344.12 C514.591304,344.12 530.243478,350.737978 542.417391,362.928989 C554.591304,375.12 561.2,390.794157 561.2,407.513258 C561.2,432.243596 546.591304,454.53573 525.026087,464.985169 L617.2,592.12 Z M454.2,426.12 L497.985311,426.12 C507.79322,426.12 516.2,418.158462 516.2,408.12 C516.2,398.081538 507.79322,390.12 497.985311,390.12 L454.2,390.12 L454.2,426.12 Z M694.2,592.12 L647.2,592.12 L647.2,344.12 L694.2,344.12 L694.2,592.12 Z M956.2,592.12 L911.194819,592.12 L800.949568,429.457079 L800.949568,592.12 L754.2,592.12 L754.2,344.12 L799.554059,344.12 L909.450432,506.434607 L909.450432,344.12 L956.2,344.12 L956.2,592.12 Z M1123.68673,596.12 C1052.32979,596.12 994.2,538.062282 994.2,466.446174 C994.2,395.177718 1052.32979,337.12 1123.68673,337.12 C1141.09086,337.12 1158.1469,340.59651 1173.81062,347.201879 C1189.47434,353.807248 1203.74572,363.193826 1215.58053,375.361611 L1222.1941,381.96698 L1187.73392,412.212617 L1181.81652,406.650201 C1166.84897,391.353557 1146.31209,383.357584 1123.68673,383.357584 C1077.73982,383.357584 1040.49499,420.556242 1040.49499,466.446174 C1040.49499,512.683758 1077.73982,550.230067 1123.68673,550.230067 C1147.00826,550.230067 1168.2413,540.84349 1184.60118,524.156242 L1184.60118,472.703893 L1116.72507,472.703893 L1116.72507,426.466309 L1230.2,426.466309 L1230.2,540.495839 L1228.45959,542.581745 C1203.39764,576.303893 1164.41239,596.12 1123.68673,596.12 Z" fill="#001D3E"></path>
                <path d="M823.871875,187.62 C826.040928,187.62 827.951881,188.43249 829.454637,189.994327 C830.932297,191.530081 831.7,193.419813 831.7,195.535385 C831.7,197.75072 830.941778,199.700065 829.454637,201.245673 C827.951881,202.80751 826.040928,203.62 823.871875,203.62 C821.593505,203.62 819.596484,202.783278 818.033701,201.163549 C816.503613,199.577706 815.7,197.662049 815.7,195.535385 C815.7,193.273996 816.523322,191.311357 818.127543,189.814947 C819.68892,188.358504 821.647367,187.62 823.871875,187.62 Z" fill="#001E3F"></path>
                <polygon fill="#001E3F" points="817.7 300.62 817.7 215.62 829.7 215.62 829.7 300.62"></polygon>
                <path d="M891.7,213.62 C902.465262,213.62 911.718588,217.608775 919.313513,225.514042 C926.891235,233.401401 930.7,243.047061 930.7,254.316581 L930.7,300.62 L918.747619,300.62 L918.747619,254.316581 C918.747619,246.300575 916.087201,239.461703 910.723805,233.676506 C905.396782,227.930542 899.105248,225.102906 891.7,225.102906 C884.294752,225.102906 878.003218,227.930542 872.676195,233.676506 C867.312799,239.461703 864.652381,246.300575 864.652381,254.316581 L864.652381,300.62 L852.7,300.62 L852.7,215.372137 L864.652381,215.372137 L864.652381,224.911412 C871.775864,217.399838 880.84496,213.62 891.7,213.62 Z" fill="#001E3F"></path>
                <path d="M1006.55906,272.813396 C1006.55906,277.299519 1008.00513,281.015109 1010.93137,284.093265 C1013.83648,287.149194 1017.25479,288.638868 1021.33423,288.638868 L1033.40706,288.638868 L1036.4018,300.62 L1033.2,300.62 L1021.33423,300.62 C1013.90063,300.62 1007.51794,297.865549 1002.33632,292.427053 C997.17924,287.014329 994.579195,280.432773 994.579195,272.813396 L994.579195,227.492642 L978.7,227.492642 L978.7,215.511509 L994.579195,215.511509 L994.579195,184.62 L1006.55906,184.62 L1006.55906,215.511509 L1029.59262,215.511509 L1029.59262,227.492642 L1006.55906,227.492642 L1006.55906,272.813396 Z" fill="#001E3F"></path>
                <path d="M1069.29946,219.045836 C1075.15847,215.69109 1081.44373,214.006921 1088.11344,214.006921 C1099.39124,214.006921 1109.03006,217.95911 1116.88754,225.812231 C1124.74489,233.665208 1128.7,243.282911 1128.7,254.52327 L1128.7,300.62 L1116.77517,300.62 L1116.77517,254.52327 C1116.77517,246.458068 1114.00207,239.647544 1108.40381,233.95463 C1102.81479,228.271116 1096.09948,225.459237 1088.11344,225.459237 C1080.25037,225.459237 1073.59522,228.294451 1068.0044,234.033438 C1062.39877,239.787621 1059.62483,246.573601 1059.62483,254.52327 L1059.62483,300.62 L1047.7,300.62 L1047.7,167.62 L1059.62483,167.62 L1059.62483,226.54607 C1062.43166,223.632122 1065.65848,221.130584 1069.29946,219.045836 Z" fill="#001E3F"></path>
                <path d="M1221.7,257.91661 L1221.7,262.878475 L1153.06265,262.878475 C1154.01774,270.306887 1156.97521,276.681001 1161.95402,282.069622 C1167.44857,288.016437 1173.81656,290.937797 1181.2,290.937797 C1185.4783,290.937797 1189.86001,289.984297 1194.35912,288.06159 C1198.81797,286.156087 1202.28687,283.714016 1204.79803,280.744968 L1206.1788,279.112425 L1216.6383,285.472448 L1214.64919,287.712258 L1213.07924,289.480039 C1209.33782,293.650904 1204.49841,296.889093 1198.59359,299.195489 C1192.75771,301.474956 1186.95571,302.62 1181.2,302.62 C1169.82889,302.62 1160.18131,298.141404 1152.42868,289.286905 C1145.34444,281.240994 1141.48604,271.620533 1140.87727,260.515315 L1140.87352,260.378475 C1140.87352,260.257626 1140.85028,259.951459 1140.80165,259.507935 C1140.73464,258.896767 1140.7,258.370146 1140.7,257.91661 C1140.7,257.482197 1140.73219,256.894966 1140.79517,256.129099 C1140.84787,255.488186 1140.87352,255.020332 1140.87352,254.751356 L1140.87956,254.577647 C1141.61282,244.050211 1145.48548,234.954871 1152.44649,227.405547 C1160.09304,218.906322 1169.7338,214.62 1181.2,214.62 C1192.66073,214.62 1202.3529,218.901561 1210.13482,227.414257 C1216.95835,235.070383 1220.76109,244.115653 1221.51257,254.467557 C1221.64141,255.319985 1221.7,256.456157 1221.7,257.91661 Z M1209.30317,251.62 C1208.05165,244.968556 1205.00982,239.310779 1200.15195,234.581911 C1194.67487,229.250269 1188.37016,226.62 1181.11268,226.62 C1173.85857,226.62 1167.58698,229.247487 1162.16952,234.573302 C1157.35855,239.302891 1154.3419,244.963835 1153.09558,251.62 L1209.30317,251.62 Z" fill="#001E3F"></path>
            </g>
        </g>
    </g>
</svg>